<svg xmlns="http://www.w3.org/2000/svg" width="2860.03" height="351.06" viewBox="0 0 2860.03 351.06">
  <defs>
    <style>
      .cls-1 {
        fill: #778191;
        fill-rule: evenodd;
      }
    </style>
  </defs>
  <path id="v" class="cls-1" d="M2045.01,1402.22h36.64V1276.04h92.75l94.14,126.18h44.98l-99.7-132.67c51.01-9.28,88.11-40.82,88.11-94.63v-0.93c0-25.52-9.27-48.25-25.04-64.02-20.41-20.41-52.41-32.47-92.29-32.47H2045.01v324.72Zm36.64-159.11V1111.36h100.17c52.4,0,83.01,24.13,83.01,64.02v0.93c0,41.75-34.78,66.8-83.47,66.8h-99.71Zm-440.13,159.11H1878.5v-33.4H1678.16V1255.17h177.15v-33.4H1678.16V1110.9h198.02v-33.4H1641.52v324.72Zm-683.6,0h36.636V1077.5H957.92v324.72Zm-201.711.99-92.75-270.2-89.04,271.13a16.6,16.6,0,0,1-30.144,0l-89.04-271.13-92.75,270.2H323.993l115.938-326.74s2.554-11,15.508-11c12.929,0,15.563,11,15.563,11l89.04,263.25,89.5-263.25s1.952-11,15.094-11c12.952,0,15.514,11,15.514,11l115.938,326.74H756.209Zm686.741,9.19c-10.89,0-15.24-10.18-15.24-10.18l-209.62-266.27v266.27h-35.71V1077.5a17.446,17.446,0,0,1,16.96-12.03c13.36,0,17.36,12.03,17.36,12.03l204.52,260.24V1077.5h35.7v324.72A14.075,14.075,0,0,1,1442.95,1412.4Zm1741.07-8.24h-40.74l-115.26-280.28-115.73,280.28h-39.35l139.34-327.69s3.05-11,16.2-11,16.2,11,16.2,11Zm-747.38-326.32h40.73l115.27,280.28,115.73-280.28h39.35l-139.34,327.69s-3.05,11-16.2,11-16.2-11-16.2-11Z" transform="translate(-324 -1065.47)"/>
</svg>
